<?xml version="1.0" standalone="no"?>
<!DOCTYPE svg PUBLIC "-//W3C//DTD SVG 20010904//EN"
 "http://www.w3.org/TR/2001/REC-SVG-20010904/DTD/svg10.dtd">
<svg version="1.0" xmlns="http://www.w3.org/2000/svg"
 width="512.000000pt" height="512.000000pt" viewBox="0 0 512.000000 512.000000"
 preserveAspectRatio="xMidYMid meet">
<metadata>
Created by potrace 1.16, written by Peter Selinger 2001-2019
</metadata>
<g transform="translate(0.000000,512.000000) scale(0.100000,-0.100000)"
fill="#000000" stroke="none">
<path d="M2368 4940 c-122 -26 -205 -54 -336 -116 -139 -65 -228 -124 -308
-202 -227 -222 -277 -513 -149 -872 28 -78 92 -212 139 -293 l28 -47 -76 45
c-156 92 -308 157 -461 196 -129 33 -322 34 -415 1 -88 -30 -156 -70 -224
-133 -277 -253 -410 -747 -305 -1130 37 -135 93 -234 189 -330 70 -71 100 -94
171 -128 48 -23 131 -53 185 -68 88 -23 119 -26 274 -27 96 -1 202 3 235 7
l60 9 -65 -69 c-191 -198 -324 -416 -372 -605 -17 -69 -20 -101 -15 -198 6
-136 25 -215 79 -330 154 -332 489 -506 943 -487 91 4 167 13 218 26 319 83
525 360 607 815 11 60 20 122 20 138 0 15 3 28 8 28 4 0 29 -48 57 -106 125
-269 306 -479 493 -573 86 -43 169 -61 292 -61 280 0 577 132 781 346 157 166
229 338 229 548 0 345 -205 644 -578 843 l-93 50 76 6 c245 21 503 154 648
334 216 268 252 603 97 914 -135 272 -375 494 -600 555 -92 24 -251 22 -353
-5 -214 -57 -435 -196 -674 -425 l-120 -116 29 113 c69 269 88 531 53 747 -77
472 -352 688 -767 600z m287 -155 c67 -18 147 -68 186 -118 44 -55 90 -155
117 -256 24 -89 26 -111 26 -316 0 -205 -1 -228 -27 -344 -40 -175 -164 -569
-196 -620 -7 -11 -17 -11 -62 -1 -68 16 -199 17 -269 1 -30 -7 -90 -29 -133
-49 l-79 -36 -34 40 c-349 402 -518 737 -517 1024 0 127 22 201 89 302 82 123
206 213 407 297 206 85 362 109 492 76z m1540 -927 c186 -60 410 -304 495
-537 130 -356 -43 -726 -411 -879 -124 -51 -206 -63 -495 -69 -239 -6 -275 -4
-433 18 l-173 24 6 65 c10 98 -15 218 -65 320 -33 68 -59 102 -126 168 l-84
83 83 107 c110 141 329 365 454 466 285 228 532 305 749 234z m-3095 -349
c251 -40 586 -223 917 -502 l83 -69 -29 -37 c-38 -48 -85 -142 -108 -216 -26
-88 -24 -258 6 -344 12 -35 21 -64 19 -65 -2 -2 -60 -35 -130 -74 -266 -151
-532 -221 -802 -209 -353 15 -553 148 -635 422 -113 377 60 900 348 1053 93
50 196 63 331 41z m1585 -541 c216 -54 371 -291 335 -513 -32 -201 -189 -357
-390 -388 -302 -46 -575 231 -521 531 49 274 304 438 576 370z m634 -743 c173
-17 362 -64 525 -131 193 -79 326 -165 439 -283 134 -141 196 -278 204 -451 6
-129 -6 -193 -56 -297 -131 -266 -476 -473 -791 -473 -125 0 -203 23 -296 89
-87 61 -160 140 -237 256 -161 245 -290 622 -322 942 l-6 61 68 34 c83 40 190
139 240 220 33 53 39 59 62 53 13 -3 90 -13 170 -20z m-1188 -147 c113 -107
246 -165 400 -175 l87 -6 11 -76 c19 -126 25 -403 12 -561 -48 -570 -232 -866
-578 -927 -106 -18 -333 -12 -431 11 -275 68 -452 229 -528 482 -26 84 -26
278 -1 354 59 174 161 325 347 510 169 169 285 256 482 362 79 42 143 77 143
77 0 1 26 -23 56 -51z"/>
</g>
</svg>
