<?xml version="1.0" standalone="no"?>
<!DOCTYPE svg PUBLIC "-//W3C//DTD SVG 20010904//EN"
 "http://www.w3.org/TR/2001/REC-SVG-20010904/DTD/svg10.dtd">
<svg version="1.0" xmlns="http://www.w3.org/2000/svg"
 width="112.000000pt" height="121.000000pt" viewBox="0 0 112.000000 121.000000"
 preserveAspectRatio="xMidYMid meet">
<metadata>
Created by potrace 1.16, written by Peter Selinger 2001-2019
</metadata>
<g transform="translate(0.000000,121.000000) scale(0.100000,-0.100000)"
fill="#000000" stroke="none">
<path d="M509 1101 c-41 -41 -39 -95 7 -216 35 -89 38 -95 65 -95 16 0 32 -1
35 -2 3 -2 24 44 46 102 48 127 49 179 1 217 -43 35 -115 32 -154 -6z M292
1030 c-37 -23 -66 -81 -58 -116 11 -41 53 -79 150 -133 l95 -52 22 22 22 22
-23 71 c-60 191 -117 241 -208 186z M780 1037 c-32 -16 -63 -71 -99 -179 l-29
-86 24 -23 23 -22 87 49 c123 69 154 101 154 153 0 89 -84 146 -160 108z M183
818 c-46 -12 -73 -51 -73 -105 0 -55 12 -78 50 -98 44 -23 91 -19 278 21 17 3
22 11 22 34 0 25 -9 35 -54 64 -119 76 -175 97 -223 84z M910 813 c-8 -3 -56
-30 -106 -59 -86 -51 -90 -55 -86 -84 2 -16 12 -32 21 -34 39 -12 186 -36 218
-36 64 0 113 45 113 106 0 37 -25 91 -48 103 -21 11 -86 14 -112 4z M345 590
c-122 -22 -146 -31 -174 -66 -57 -73 19 -196 111 -177 36 7 94 62 167 157 39
50 43 59 33 81 -13 29 -6 28 -137 5z M696 586 c-15 -24 -14 -27 62 -118 91
-109 133 -136 187 -118 37 12 69 50 80 92 10 37 -18 94 -55 113 -23 12 -215
53 -256 55 -1 0 -9 -11 -18 -24z M455 468 c-81 -95 -105 -136 -105 -178 0 -94
112 -143 182 -81 l33 29 3 143 c4 146 1 160 -38 158 -8 0 -42 -32 -75 -71z
M616 527 c-16 -12 -18 -27 -14 -138 5 -136 16 -172 59 -195 77 -39 169 13 169
97 0 40 -27 82 -118 187 -57 65 -67 70 -96 49z"/>
</g>
</svg>
